<svg width="50" height="40" viewBox="0 0 57 40" fill="none" xmlns="http://www.w3.org/2000/svg">
<path d="M54.7251 20.1519C47.1545 34.7915 30.9219 39.9948 30.9219 39.9948L38.1535 24.4925C33.3637 21.9864 31.0183 18.0289 31.1176 12.6198C31.2168 9.11057 32.4441 6.12954 34.7995 3.67674C37.1549 1.22393 40.0882 -0.00155191 43.5993 0.0002854C45.3062 -0.0326962 47.0005 0.299111 48.5689 0.973524C50.1373 1.64794 51.5437 2.64941 52.694 3.91099C55.1065 6.40722 56.4314 9.75778 56.3787 13.2289C56.3787 15.5384 54.7251 20.1519 54.7251 20.1519Z" fill="#EABE4D"/>
<path d="M23.8032 20.1524C16.2326 34.792 0 40.0008 0 40.0008L7.23164 24.4985C2.44178 21.9943 0.0964586 18.0367 0.195673 12.6258C0.294888 9.11657 1.52313 6.13554 3.88039 3.68274C6.23766 1.22993 9.17 0.00261099 12.6774 0.000773681C14.3844 -0.0322079 16.0787 0.2996 17.6471 0.974012C19.2155 1.64842 20.6218 2.6499 21.7721 3.91148C24.1866 6.4066 25.5128 9.75766 25.4596 13.2294C25.4596 15.5389 23.8032 20.1524 23.8032 20.1524Z" fill="#EABE4D"/>
</svg>
